<mxfile host="app.diagrams.net" modified="2022-11-15T10:49:43.133Z" agent="5.0 (Macintosh; Intel Mac OS X 10_15_7) AppleWebKit/537.36 (KHTML, like Gecko) Chrome/107.0.0.0 Safari/537.36" etag="g3YONVAypNkgZ_vbf2NE" version="20.1.1" type="github">
  <diagram id="t3yySSqcQi0GK2jSETE2" name="第 1 页">
    <mxGraphModel dx="1234" dy="793" grid="1" gridSize="10" guides="1" tooltips="1" connect="1" arrows="1" fold="1" page="1" pageScale="1" pageWidth="827" pageHeight="1169" math="0" shadow="0">
      <root>
        <mxCell id="0" />
        <mxCell id="1" parent="0" />
        <mxCell id="Fh5pH-LALgqKmIhRboKd-12" value="" style="edgeStyle=orthogonalEdgeStyle;curved=1;rounded=1;sketch=1;orthogonalLoop=1;jettySize=auto;html=1;fontFamily=手札体-简;fontColor=#1A1A1A;strokeColor=#09555B;" edge="1" parent="1" source="Fh5pH-LALgqKmIhRboKd-6" target="Fh5pH-LALgqKmIhRboKd-11">
          <mxGeometry relative="1" as="geometry" />
        </mxCell>
        <mxCell id="Fh5pH-LALgqKmIhRboKd-6" value="页面加载" style="whiteSpace=wrap;html=1;fontFamily=手札体-简;fillColor=#dae8fc;strokeColor=#6c8ebf;rounded=1;sketch=1;shadow=0;glass=0;" vertex="1" parent="1">
          <mxGeometry x="250" y="250" width="120" height="60" as="geometry" />
        </mxCell>
        <mxCell id="Fh5pH-LALgqKmIhRboKd-16" value="" style="edgeStyle=orthogonalEdgeStyle;curved=1;rounded=1;sketch=1;orthogonalLoop=1;jettySize=auto;html=1;fontFamily=手札体-简;fontColor=#1A1A1A;strokeColor=#09555B;" edge="1" parent="1" source="Fh5pH-LALgqKmIhRboKd-11" target="Fh5pH-LALgqKmIhRboKd-15">
          <mxGeometry relative="1" as="geometry" />
        </mxCell>
        <mxCell id="Fh5pH-LALgqKmIhRboKd-11" value="监听资源加载" style="whiteSpace=wrap;html=1;fontFamily=手札体-简;fillColor=#dae8fc;strokeColor=#6c8ebf;rounded=1;sketch=1;shadow=0;glass=0;" vertex="1" parent="1">
          <mxGeometry x="250" y="380" width="120" height="60" as="geometry" />
        </mxCell>
        <mxCell id="Fh5pH-LALgqKmIhRboKd-18" value="" style="edgeStyle=orthogonalEdgeStyle;curved=1;rounded=1;sketch=1;orthogonalLoop=1;jettySize=auto;html=1;fontFamily=手札体-简;fontColor=#1A1A1A;strokeColor=#09555B;entryX=0.5;entryY=0;entryDx=0;entryDy=0;" edge="1" parent="1" source="Fh5pH-LALgqKmIhRboKd-15" target="Fh5pH-LALgqKmIhRboKd-32">
          <mxGeometry relative="1" as="geometry">
            <mxPoint x="320" y="670" as="targetPoint" />
          </mxGeometry>
        </mxCell>
        <mxCell id="Fh5pH-LALgqKmIhRboKd-24" value="成功" style="edgeLabel;html=1;align=center;verticalAlign=middle;resizable=0;points=[];fontFamily=手札体-简;fontColor=#1A1A1A;" vertex="1" connectable="0" parent="Fh5pH-LALgqKmIhRboKd-18">
          <mxGeometry x="-0.3714" relative="1" as="geometry">
            <mxPoint as="offset" />
          </mxGeometry>
        </mxCell>
        <mxCell id="Fh5pH-LALgqKmIhRboKd-26" value="" style="edgeStyle=orthogonalEdgeStyle;curved=1;rounded=1;sketch=1;orthogonalLoop=1;jettySize=auto;html=1;fontFamily=手札体-简;fontColor=#1A1A1A;strokeColor=#09555B;entryX=0;entryY=0.5;entryDx=0;entryDy=0;" edge="1" parent="1" source="Fh5pH-LALgqKmIhRboKd-15" target="Fh5pH-LALgqKmIhRboKd-43">
          <mxGeometry relative="1" as="geometry" />
        </mxCell>
        <mxCell id="Fh5pH-LALgqKmIhRboKd-27" value="失败" style="edgeLabel;html=1;align=center;verticalAlign=middle;resizable=0;points=[];fontFamily=手札体-简;fontColor=#1A1A1A;" vertex="1" connectable="0" parent="Fh5pH-LALgqKmIhRboKd-26">
          <mxGeometry x="-0.1" y="1" relative="1" as="geometry">
            <mxPoint as="offset" />
          </mxGeometry>
        </mxCell>
        <mxCell id="Fh5pH-LALgqKmIhRboKd-15" value="CDN 请求结果" style="rhombus;whiteSpace=wrap;html=1;fontFamily=手札体-简;fillColor=#dae8fc;strokeColor=#6c8ebf;rounded=1;sketch=1;shadow=0;glass=0;" vertex="1" parent="1">
          <mxGeometry x="250" y="510" width="120" height="80" as="geometry" />
        </mxCell>
        <mxCell id="Fh5pH-LALgqKmIhRboKd-19" value="加载完毕" style="whiteSpace=wrap;html=1;fontFamily=手札体-简;fillColor=#dae8fc;strokeColor=#6c8ebf;rounded=1;sketch=1;shadow=0;glass=0;" vertex="1" parent="1">
          <mxGeometry x="250" y="1000" width="120" height="60" as="geometry" />
        </mxCell>
        <mxCell id="Fh5pH-LALgqKmIhRboKd-29" value="" style="edgeStyle=orthogonalEdgeStyle;curved=1;rounded=1;sketch=1;orthogonalLoop=1;jettySize=auto;html=1;fontFamily=手札体-简;fontColor=#1A1A1A;strokeColor=#09555B;" edge="1" parent="1" source="Fh5pH-LALgqKmIhRboKd-25" target="Fh5pH-LALgqKmIhRboKd-28">
          <mxGeometry relative="1" as="geometry" />
        </mxCell>
        <mxCell id="Fh5pH-LALgqKmIhRboKd-25" value="请求接口" style="whiteSpace=wrap;html=1;fontFamily=手札体-简;fillColor=#dae8fc;strokeColor=#6c8ebf;rounded=1;sketch=1;shadow=0;glass=0;" vertex="1" parent="1">
          <mxGeometry x="690" y="650" width="120" height="60" as="geometry" />
        </mxCell>
        <mxCell id="Fh5pH-LALgqKmIhRboKd-40" value="" style="edgeStyle=orthogonalEdgeStyle;curved=1;rounded=1;sketch=1;orthogonalLoop=1;jettySize=auto;html=1;fontFamily=手札体-简;fontColor=#1A1A1A;strokeColor=#09555B;" edge="1" parent="1" source="Fh5pH-LALgqKmIhRboKd-28" target="Fh5pH-LALgqKmIhRboKd-39">
          <mxGeometry relative="1" as="geometry" />
        </mxCell>
        <mxCell id="Fh5pH-LALgqKmIhRboKd-42" value="失败" style="edgeLabel;html=1;align=center;verticalAlign=middle;resizable=0;points=[];fontFamily=手札体-简;fontColor=#1A1A1A;" vertex="1" connectable="0" parent="Fh5pH-LALgqKmIhRboKd-40">
          <mxGeometry x="0.1524" y="-18" relative="1" as="geometry">
            <mxPoint as="offset" />
          </mxGeometry>
        </mxCell>
        <mxCell id="Fh5pH-LALgqKmIhRboKd-52" value="成功" style="edgeStyle=orthogonalEdgeStyle;curved=1;rounded=1;sketch=1;orthogonalLoop=1;jettySize=auto;html=1;exitX=0.5;exitY=1;exitDx=0;exitDy=0;entryX=0.5;entryY=0;entryDx=0;entryDy=0;fontFamily=手札体-简;fontColor=#1A1A1A;strokeColor=#09555B;" edge="1" parent="1" source="Fh5pH-LALgqKmIhRboKd-28" target="Fh5pH-LALgqKmIhRboKd-51">
          <mxGeometry relative="1" as="geometry" />
        </mxCell>
        <mxCell id="Fh5pH-LALgqKmIhRboKd-28" value="接口请求结果" style="rhombus;whiteSpace=wrap;html=1;fontFamily=手札体-简;fillColor=#dae8fc;strokeColor=#6c8ebf;rounded=1;sketch=1;shadow=0;glass=0;" vertex="1" parent="1">
          <mxGeometry x="695" y="760" width="110" height="80" as="geometry" />
        </mxCell>
        <mxCell id="Fh5pH-LALgqKmIhRboKd-34" style="edgeStyle=orthogonalEdgeStyle;curved=1;rounded=1;sketch=1;orthogonalLoop=1;jettySize=auto;html=1;exitX=0.5;exitY=1;exitDx=0;exitDy=0;fontFamily=手札体-简;fontColor=#1A1A1A;strokeColor=#09555B;" edge="1" parent="1" source="Fh5pH-LALgqKmIhRboKd-32" target="Fh5pH-LALgqKmIhRboKd-19">
          <mxGeometry relative="1" as="geometry" />
        </mxCell>
        <mxCell id="Fh5pH-LALgqKmIhRboKd-32" value="上报加载信息" style="whiteSpace=wrap;html=1;fontFamily=手札体-简;fillColor=#dae8fc;strokeColor=#6c8ebf;rounded=1;sketch=1;shadow=0;glass=0;" vertex="1" parent="1">
          <mxGeometry x="250" y="770" width="120" height="60" as="geometry" />
        </mxCell>
        <mxCell id="Fh5pH-LALgqKmIhRboKd-60" style="edgeStyle=orthogonalEdgeStyle;curved=1;rounded=1;sketch=1;orthogonalLoop=1;jettySize=auto;html=1;exitX=0.5;exitY=1;exitDx=0;exitDy=0;entryX=1.008;entryY=0.633;entryDx=0;entryDy=0;entryPerimeter=0;fontFamily=手札体-简;fontColor=#1A1A1A;strokeColor=#09555B;" edge="1" parent="1" source="Fh5pH-LALgqKmIhRboKd-39" target="Fh5pH-LALgqKmIhRboKd-19">
          <mxGeometry relative="1" as="geometry" />
        </mxCell>
        <mxCell id="Fh5pH-LALgqKmIhRboKd-39" value="上报失败信息" style="whiteSpace=wrap;html=1;fontFamily=手札体-简;fillColor=#dae8fc;strokeColor=#6c8ebf;rounded=1;sketch=1;shadow=0;glass=0;" vertex="1" parent="1">
          <mxGeometry x="900" y="900" width="120" height="60" as="geometry" />
        </mxCell>
        <mxCell id="Fh5pH-LALgqKmIhRboKd-44" style="edgeStyle=orthogonalEdgeStyle;curved=1;rounded=1;sketch=1;orthogonalLoop=1;jettySize=auto;html=1;exitX=1;exitY=0.5;exitDx=0;exitDy=0;entryX=0;entryY=0.5;entryDx=0;entryDy=0;fontFamily=手札体-简;fontColor=#1A1A1A;strokeColor=#09555B;" edge="1" parent="1" source="Fh5pH-LALgqKmIhRboKd-45" target="Fh5pH-LALgqKmIhRboKd-25">
          <mxGeometry relative="1" as="geometry" />
        </mxCell>
        <mxCell id="Fh5pH-LALgqKmIhRboKd-50" value="超过" style="edgeLabel;html=1;align=center;verticalAlign=middle;resizable=0;points=[];fontFamily=手札体-简;fontColor=#1A1A1A;" vertex="1" connectable="0" parent="Fh5pH-LALgqKmIhRboKd-44">
          <mxGeometry x="-0.4123" y="17" relative="1" as="geometry">
            <mxPoint as="offset" />
          </mxGeometry>
        </mxCell>
        <mxCell id="Fh5pH-LALgqKmIhRboKd-46" value="" style="edgeStyle=orthogonalEdgeStyle;curved=1;rounded=1;sketch=1;orthogonalLoop=1;jettySize=auto;html=1;fontFamily=手札体-简;fontColor=#1A1A1A;strokeColor=#09555B;" edge="1" parent="1" source="Fh5pH-LALgqKmIhRboKd-43" target="Fh5pH-LALgqKmIhRboKd-45">
          <mxGeometry relative="1" as="geometry" />
        </mxCell>
        <mxCell id="Fh5pH-LALgqKmIhRboKd-43" value="重试" style="whiteSpace=wrap;html=1;fontFamily=手札体-简;fillColor=#dae8fc;strokeColor=#6c8ebf;rounded=1;sketch=1;shadow=0;glass=0;" vertex="1" parent="1">
          <mxGeometry x="470" y="520" width="120" height="60" as="geometry" />
        </mxCell>
        <mxCell id="Fh5pH-LALgqKmIhRboKd-48" style="edgeStyle=orthogonalEdgeStyle;curved=1;rounded=1;sketch=1;orthogonalLoop=1;jettySize=auto;html=1;exitX=0.5;exitY=1;exitDx=0;exitDy=0;entryX=0.5;entryY=0;entryDx=0;entryDy=0;fontFamily=手札体-简;fontColor=#1A1A1A;strokeColor=#09555B;" edge="1" parent="1" source="Fh5pH-LALgqKmIhRboKd-45" target="Fh5pH-LALgqKmIhRboKd-47">
          <mxGeometry relative="1" as="geometry" />
        </mxCell>
        <mxCell id="Fh5pH-LALgqKmIhRboKd-49" value="没超过" style="edgeLabel;html=1;align=center;verticalAlign=middle;resizable=0;points=[];fontFamily=手札体-简;fontColor=#1A1A1A;" vertex="1" connectable="0" parent="Fh5pH-LALgqKmIhRboKd-48">
          <mxGeometry x="0.0667" y="2" relative="1" as="geometry">
            <mxPoint as="offset" />
          </mxGeometry>
        </mxCell>
        <mxCell id="Fh5pH-LALgqKmIhRboKd-45" value="重试超过限制次数" style="rhombus;whiteSpace=wrap;html=1;fontFamily=手札体-简;fillColor=#dae8fc;strokeColor=#6c8ebf;rounded=1;sketch=1;shadow=0;glass=0;" vertex="1" parent="1">
          <mxGeometry x="465" y="640" width="130" height="80" as="geometry" />
        </mxCell>
        <mxCell id="Fh5pH-LALgqKmIhRboKd-56" style="edgeStyle=orthogonalEdgeStyle;curved=1;rounded=1;sketch=1;orthogonalLoop=1;jettySize=auto;html=1;exitX=0.5;exitY=1;exitDx=0;exitDy=0;entryX=0.75;entryY=0;entryDx=0;entryDy=0;fontFamily=手札体-简;fontColor=#1A1A1A;strokeColor=#09555B;" edge="1" parent="1" source="Fh5pH-LALgqKmIhRboKd-47" target="Fh5pH-LALgqKmIhRboKd-19">
          <mxGeometry relative="1" as="geometry" />
        </mxCell>
        <mxCell id="Fh5pH-LALgqKmIhRboKd-47" value="上报重试信息" style="whiteSpace=wrap;html=1;fontFamily=手札体-简;fillColor=#dae8fc;strokeColor=#6c8ebf;rounded=1;sketch=1;shadow=0;glass=0;" vertex="1" parent="1">
          <mxGeometry x="470" y="770" width="120" height="60" as="geometry" />
        </mxCell>
        <mxCell id="Fh5pH-LALgqKmIhRboKd-59" style="edgeStyle=orthogonalEdgeStyle;curved=1;rounded=1;sketch=1;orthogonalLoop=1;jettySize=auto;html=1;exitX=0.5;exitY=1;exitDx=0;exitDy=0;entryX=1;entryY=0.25;entryDx=0;entryDy=0;fontFamily=手札体-简;fontColor=#1A1A1A;strokeColor=#09555B;" edge="1" parent="1" source="Fh5pH-LALgqKmIhRboKd-51" target="Fh5pH-LALgqKmIhRboKd-19">
          <mxGeometry relative="1" as="geometry" />
        </mxCell>
        <mxCell id="Fh5pH-LALgqKmIhRboKd-51" value="上报接口请求信息" style="whiteSpace=wrap;html=1;fontFamily=手札体-简;fillColor=#dae8fc;strokeColor=#6c8ebf;rounded=1;sketch=1;shadow=0;glass=0;" vertex="1" parent="1">
          <mxGeometry x="690" y="900" width="120" height="60" as="geometry" />
        </mxCell>
      </root>
    </mxGraphModel>
  </diagram>
</mxfile>
